<mxfile host="app.diagrams.net" modified="2022-03-09T16:44:55.830Z" agent="5.0 (Windows)" etag="AR9MXB0LVrgZd3WTkQ4R" version="16.6.8" type="github">
  <diagram id="tQhhWCgTlTceESivTciR" name="Page-1">
    <mxGraphModel dx="2105" dy="536" grid="1" gridSize="10" guides="1" tooltips="1" connect="1" arrows="1" fold="1" page="1" pageScale="1" pageWidth="827" pageHeight="1169" math="0" shadow="0">
      <root>
        <mxCell id="0" />
        <mxCell id="1" parent="0" />
        <mxCell id="FP-qPfGK_xFJ3-6SMsp6-1" value="Prey" style="swimlane;fontStyle=1;align=center;verticalAlign=top;childLayout=stackLayout;horizontal=1;startSize=26;horizontalStack=0;resizeParent=1;resizeParentMax=0;resizeLast=0;collapsible=1;marginBottom=0;" parent="1" vertex="1">
          <mxGeometry x="-220" y="390" width="230" height="90" as="geometry" />
        </mxCell>
        <mxCell id="p-vpk-FNosqic6lHoFx3-1" value="+ escapeCoeff: double" style="text;strokeColor=none;fillColor=none;align=left;verticalAlign=top;spacingLeft=4;spacingRight=4;overflow=hidden;rotatable=0;points=[[0,0.5],[1,0.5]];portConstraint=eastwest;" vertex="1" parent="FP-qPfGK_xFJ3-6SMsp6-1">
          <mxGeometry y="26" width="230" height="26" as="geometry" />
        </mxCell>
        <mxCell id="FP-qPfGK_xFJ3-6SMsp6-3" value="" style="line;strokeWidth=1;fillColor=none;align=left;verticalAlign=middle;spacingTop=-1;spacingLeft=3;spacingRight=3;rotatable=0;labelPosition=right;points=[];portConstraint=eastwest;" parent="FP-qPfGK_xFJ3-6SMsp6-1" vertex="1">
          <mxGeometry y="52" width="230" height="8" as="geometry" />
        </mxCell>
        <mxCell id="FP-qPfGK_xFJ3-6SMsp6-39" value="+ computeEscapeForce(): Vector2D&#xa;" style="text;strokeColor=none;fillColor=none;align=left;verticalAlign=top;spacingLeft=4;spacingRight=4;overflow=hidden;rotatable=0;points=[[0,0.5],[1,0.5]];portConstraint=eastwest;" parent="FP-qPfGK_xFJ3-6SMsp6-1" vertex="1">
          <mxGeometry y="60" width="230" height="30" as="geometry" />
        </mxCell>
        <mxCell id="FP-qPfGK_xFJ3-6SMsp6-6" value="Flock" style="swimlane;fontStyle=1;align=center;verticalAlign=top;childLayout=stackLayout;horizontal=1;startSize=26;horizontalStack=0;resizeParent=1;resizeParentMax=0;resizeLast=0;collapsible=1;marginBottom=0;" parent="1" vertex="1">
          <mxGeometry x="175" y="20" width="180" height="220" as="geometry" />
        </mxCell>
        <mxCell id="FP-qPfGK_xFJ3-6SMsp6-7" value="+ boids: ArrayList&lt;Boid&gt;&#xa;+ cohesionCoeff: double&#xa;+ separationCoeff: double&#xa;+ alignmentCoeff: double&#xa;+ segregationCoeff: double&#xa;+ name: String&#xa;+ color: Color&#xa;&#xa;" style="text;strokeColor=none;fillColor=none;align=left;verticalAlign=top;spacingLeft=4;spacingRight=4;overflow=hidden;rotatable=0;points=[[0,0.5],[1,0.5]];portConstraint=eastwest;" parent="FP-qPfGK_xFJ3-6SMsp6-6" vertex="1">
          <mxGeometry y="26" width="180" height="104" as="geometry" />
        </mxCell>
        <mxCell id="FP-qPfGK_xFJ3-6SMsp6-8" value="" style="line;strokeWidth=1;fillColor=none;align=left;verticalAlign=middle;spacingTop=-1;spacingLeft=3;spacingRight=3;rotatable=0;labelPosition=right;points=[];portConstraint=eastwest;" parent="FP-qPfGK_xFJ3-6SMsp6-6" vertex="1">
          <mxGeometry y="130" width="180" height="8" as="geometry" />
        </mxCell>
        <mxCell id="FP-qPfGK_xFJ3-6SMsp6-9" value="+ addBoids(): void+ getViewRange(): int&#xa;+ updateViewRange(int): void&#xa;+ getSpeedMax(int): int&#xa;+ updateSpeedMax(int): void&#xa;+ drawBoids(Graphics): void&#xa;" style="text;strokeColor=none;fillColor=none;align=left;verticalAlign=top;spacingLeft=4;spacingRight=4;overflow=hidden;rotatable=0;points=[[0,0.5],[1,0.5]];portConstraint=eastwest;" parent="FP-qPfGK_xFJ3-6SMsp6-6" vertex="1">
          <mxGeometry y="138" width="180" height="82" as="geometry" />
        </mxCell>
        <mxCell id="FP-qPfGK_xFJ3-6SMsp6-10" value="Main" style="swimlane;fontStyle=1;align=center;verticalAlign=top;childLayout=stackLayout;horizontal=1;startSize=26;horizontalStack=0;resizeParent=1;resizeParentMax=0;resizeLast=0;collapsible=1;marginBottom=0;" parent="1" vertex="1">
          <mxGeometry x="380" y="260" width="160" height="60" as="geometry" />
        </mxCell>
        <mxCell id="FP-qPfGK_xFJ3-6SMsp6-12" value="" style="line;strokeWidth=1;fillColor=none;align=left;verticalAlign=middle;spacingTop=-1;spacingLeft=3;spacingRight=3;rotatable=0;labelPosition=right;points=[];portConstraint=eastwest;" parent="FP-qPfGK_xFJ3-6SMsp6-10" vertex="1">
          <mxGeometry y="26" width="160" height="8" as="geometry" />
        </mxCell>
        <mxCell id="FP-qPfGK_xFJ3-6SMsp6-13" value="+ main(String[] args): void" style="text;strokeColor=none;fillColor=none;align=left;verticalAlign=top;spacingLeft=4;spacingRight=4;overflow=hidden;rotatable=0;points=[[0,0.5],[1,0.5]];portConstraint=eastwest;" parent="FP-qPfGK_xFJ3-6SMsp6-10" vertex="1">
          <mxGeometry y="34" width="160" height="26" as="geometry" />
        </mxCell>
        <mxCell id="FP-qPfGK_xFJ3-6SMsp6-14" value="GUI" style="swimlane;fontStyle=1;align=center;verticalAlign=top;childLayout=stackLayout;horizontal=1;startSize=26;horizontalStack=0;resizeParent=1;resizeParentMax=0;resizeLast=0;collapsible=1;marginBottom=0;" parent="1" vertex="1">
          <mxGeometry x="380" y="20" width="210" height="170" as="geometry" />
        </mxCell>
        <mxCell id="FP-qPfGK_xFJ3-6SMsp6-15" value="+ HEIGHT: int&#xa;+ SIMULATION_PANEL_WIDTH: int&#xa;+ CONFIG_PANEL_WIDTH: int&#xa;+ flocks: ArrayList&lt;Flock&gt;" style="text;strokeColor=none;fillColor=none;align=left;verticalAlign=top;spacingLeft=4;spacingRight=4;overflow=hidden;rotatable=0;points=[[0,0.5],[1,0.5]];portConstraint=eastwest;" parent="FP-qPfGK_xFJ3-6SMsp6-14" vertex="1">
          <mxGeometry y="26" width="210" height="74" as="geometry" />
        </mxCell>
        <mxCell id="FP-qPfGK_xFJ3-6SMsp6-16" value="" style="line;strokeWidth=1;fillColor=none;align=left;verticalAlign=middle;spacingTop=-1;spacingLeft=3;spacingRight=3;rotatable=0;labelPosition=right;points=[];portConstraint=eastwest;" parent="FP-qPfGK_xFJ3-6SMsp6-14" vertex="1">
          <mxGeometry y="100" width="210" height="8" as="geometry" />
        </mxCell>
        <mxCell id="FP-qPfGK_xFJ3-6SMsp6-17" value="+ initFlock(): void&#xa;+ actionPerformed(ActionEvent): void&#xa;+ paint(Graphics): void&#xa;&#xa;&#xa;" style="text;strokeColor=none;fillColor=none;align=left;verticalAlign=top;spacingLeft=4;spacingRight=4;overflow=hidden;rotatable=0;points=[[0,0.5],[1,0.5]];portConstraint=eastwest;" parent="FP-qPfGK_xFJ3-6SMsp6-14" vertex="1">
          <mxGeometry y="108" width="210" height="62" as="geometry" />
        </mxCell>
        <mxCell id="FP-qPfGK_xFJ3-6SMsp6-22" value="&lt;p style=&quot;margin: 0px ; margin-top: 4px ; text-align: center&quot;&gt;&lt;i&gt;&lt;b&gt;abstract &lt;/b&gt;&lt;b&gt;Boid &lt;/b&gt;&lt;/i&gt;&lt;br&gt;&lt;/p&gt;&lt;hr size=&quot;1&quot;&gt;&lt;div&gt;&amp;nbsp;+ position: Vector2D&lt;br&gt;&lt;/div&gt;&lt;div&gt;&amp;nbsp;+ vitesse: Vector2D&lt;/div&gt;&lt;div&gt;&amp;nbsp;+ forces: Vector2D&lt;/div&gt;&lt;div&gt;&amp;nbsp;+ trails: ArrayList&amp;lt;Vector2D&amp;gt;&lt;br&gt;&lt;/div&gt;&lt;div&gt;&amp;nbsp;+ neighbours: ArrayList&amp;lt;Boid&amp;gt;&lt;/div&gt;&lt;div&gt;&amp;nbsp;+ flockNeighbours: ArrayList&amp;lt;Boid&amp;gt;&lt;/div&gt;&lt;div&gt;&amp;nbsp;+ viewRange: int&lt;br&gt;&lt;/div&gt;&lt;div&gt;&amp;nbsp;+ speedMax: int&lt;br&gt;&lt;/div&gt;&lt;div&gt;&amp;nbsp;+ color: Color&lt;/div&gt;&lt;div&gt;&amp;nbsp;+ size: int&lt;/div&gt;&lt;div&gt;&amp;nbsp;+ flock: Flock&lt;/div&gt;&lt;hr size=&quot;1&quot;&gt;&lt;p style=&quot;margin: 0px ; margin-left: 4px&quot;&gt;&amp;nbsp;+ findNeighbours(): void&lt;/p&gt;&lt;p style=&quot;margin: 0px ; margin-left: 4px&quot;&gt;&lt;i&gt;&amp;nbsp;+ abstract computeForces(): void&lt;/i&gt;&lt;/p&gt;&lt;p style=&quot;margin: 0px ; margin-left: 4px&quot;&gt;&amp;nbsp;+ applyForces(): void&lt;/p&gt;&lt;p style=&quot;margin: 0px ; margin-left: 4px&quot;&gt;&amp;nbsp;+ drawBoid(Graphics): void&lt;/p&gt;&lt;p style=&quot;margin: 0px ; margin-left: 4px&quot;&gt;&lt;br&gt;&lt;/p&gt;" style="verticalAlign=top;align=left;overflow=fill;fontSize=12;fontFamily=Helvetica;html=1;" parent="1" vertex="1">
          <mxGeometry x="-80" y="20" width="220" height="270" as="geometry" />
        </mxCell>
        <mxCell id="FP-qPfGK_xFJ3-6SMsp6-35" value="Vector2D" style="swimlane;fontStyle=1;align=center;verticalAlign=top;childLayout=stackLayout;horizontal=1;startSize=26;horizontalStack=0;resizeParent=1;resizeParentMax=0;resizeLast=0;collapsible=1;marginBottom=0;" parent="1" vertex="1">
          <mxGeometry x="-330" y="45" width="160" height="180" as="geometry" />
        </mxCell>
        <mxCell id="FP-qPfGK_xFJ3-6SMsp6-36" value="+ x: double&#xa;+ y: double&#xa;" style="text;strokeColor=none;fillColor=none;align=left;verticalAlign=top;spacingLeft=4;spacingRight=4;overflow=hidden;rotatable=0;points=[[0,0.5],[1,0.5]];portConstraint=eastwest;" parent="FP-qPfGK_xFJ3-6SMsp6-35" vertex="1">
          <mxGeometry y="26" width="160" height="34" as="geometry" />
        </mxCell>
        <mxCell id="FP-qPfGK_xFJ3-6SMsp6-37" value="" style="line;strokeWidth=1;fillColor=none;align=left;verticalAlign=middle;spacingTop=-1;spacingLeft=3;spacingRight=3;rotatable=0;labelPosition=right;points=[];portConstraint=eastwest;" parent="FP-qPfGK_xFJ3-6SMsp6-35" vertex="1">
          <mxGeometry y="60" width="160" height="8" as="geometry" />
        </mxCell>
        <mxCell id="FP-qPfGK_xFJ3-6SMsp6-38" value="+ add(Vector2D): void&#xa;+ substract(Vector2D): void&#xa;+ multiply(Vector2D): void&#xa;+ divide(Vector2D): void&#xa;+ ceil(Vector2D): void&#xa;+ floor(Vector2D): void&#xa;+ norm(): double&#xa;" style="text;strokeColor=none;fillColor=none;align=left;verticalAlign=top;spacingLeft=4;spacingRight=4;overflow=hidden;rotatable=0;points=[[0,0.5],[1,0.5]];portConstraint=eastwest;" parent="FP-qPfGK_xFJ3-6SMsp6-35" vertex="1">
          <mxGeometry y="68" width="160" height="112" as="geometry" />
        </mxCell>
        <mxCell id="FP-qPfGK_xFJ3-6SMsp6-41" value="Predator" style="swimlane;fontStyle=1;align=center;verticalAlign=top;childLayout=stackLayout;horizontal=1;startSize=26;horizontalStack=0;resizeParent=1;resizeParentMax=0;resizeLast=0;collapsible=1;marginBottom=0;" parent="1" vertex="1">
          <mxGeometry x="40" y="390" width="230" height="90" as="geometry" />
        </mxCell>
        <mxCell id="p-vpk-FNosqic6lHoFx3-2" value="+ huntingCoeff: double" style="text;strokeColor=none;fillColor=none;align=left;verticalAlign=top;spacingLeft=4;spacingRight=4;overflow=hidden;rotatable=0;points=[[0,0.5],[1,0.5]];portConstraint=eastwest;" vertex="1" parent="FP-qPfGK_xFJ3-6SMsp6-41">
          <mxGeometry y="26" width="230" height="26" as="geometry" />
        </mxCell>
        <mxCell id="FP-qPfGK_xFJ3-6SMsp6-43" value="" style="line;strokeWidth=1;fillColor=none;align=left;verticalAlign=middle;spacingTop=-1;spacingLeft=3;spacingRight=3;rotatable=0;labelPosition=right;points=[];portConstraint=eastwest;" parent="FP-qPfGK_xFJ3-6SMsp6-41" vertex="1">
          <mxGeometry y="52" width="230" height="8" as="geometry" />
        </mxCell>
        <mxCell id="FP-qPfGK_xFJ3-6SMsp6-44" value="+ computeHuntingForce(): Vector2D" style="text;strokeColor=none;fillColor=none;align=left;verticalAlign=top;spacingLeft=4;spacingRight=4;overflow=hidden;rotatable=0;points=[[0,0.5],[1,0.5]];portConstraint=eastwest;" parent="FP-qPfGK_xFJ3-6SMsp6-41" vertex="1">
          <mxGeometry y="60" width="230" height="30" as="geometry" />
        </mxCell>
        <mxCell id="FP-qPfGK_xFJ3-6SMsp6-45" value="Extends" style="endArrow=block;endSize=16;endFill=0;html=1;rounded=0;exitX=0.5;exitY=0;exitDx=0;exitDy=0;entryX=0.25;entryY=1;entryDx=0;entryDy=0;" parent="1" source="FP-qPfGK_xFJ3-6SMsp6-1" target="FP-qPfGK_xFJ3-6SMsp6-22" edge="1">
          <mxGeometry width="160" relative="1" as="geometry">
            <mxPoint x="80" y="250" as="sourcePoint" />
            <mxPoint x="240" y="250" as="targetPoint" />
          </mxGeometry>
        </mxCell>
        <mxCell id="FP-qPfGK_xFJ3-6SMsp6-46" value="Extends" style="endArrow=block;endSize=16;endFill=0;html=1;rounded=0;exitX=0.5;exitY=0;exitDx=0;exitDy=0;entryX=0.75;entryY=1;entryDx=0;entryDy=0;" parent="1" source="FP-qPfGK_xFJ3-6SMsp6-41" target="FP-qPfGK_xFJ3-6SMsp6-22" edge="1">
          <mxGeometry width="160" relative="1" as="geometry">
            <mxPoint x="140" y="350" as="sourcePoint" />
            <mxPoint x="277.5" y="250" as="targetPoint" />
          </mxGeometry>
        </mxCell>
      </root>
    </mxGraphModel>
  </diagram>
</mxfile>
